<svg xmlns="http://www.w3.org/2000/svg" viewBox="0 0 420.62 114.55"><title>Asset 1</title><g id="Layer_2" data-name="Layer 2"><g id="logo_2" data-name="logo 2"><path d="M0,112.08V0H30.63C56.91,0,73.17,12.78,73.17,35c0,25.55-16.26,38.18-45.59,38.18H20.91v38.91ZM20.91,55.17H29c15.39,0,23.67-6.53,23.67-19C52.7,24.54,44.57,18,29.91,18h-9Z" style="fill:#2f4858"/><path d="M134.3,60.11a40.32,40.32,0,0,0-7.4-.58c-6.68,0-11.18,1.16-14.37,3.48-2.76,2-3.92,4.94-3.92,8.86v40.22H88.71V40.36H108.6V51.54c4.94-7.26,11.61-12.63,20.91-12.63a23.47,23.47,0,0,1,4.79.44Z" style="fill:#2f4858"/><path d="M159.42,80C161,92,169.73,98.15,182.07,98.15c9.73,0,18-3,25-9.58h.43l-1.6,18c-5.37,4.65-14.23,8-26.28,8-21.49,0-38.18-11.76-38.18-37.89,0-21.49,14.37-38.76,35.86-38.76,20,0,32.52,12.78,32.52,31.51a64,64,0,0,1-.58,9.29Zm0-10,32.81-.87c0-9.87-5.08-16.41-15.39-16.41C167.55,52.7,161,59.09,159.42,70Z" style="fill:#2f4858"/><path d="M224.32,89.14c6.53,6.53,16,10.45,24.39,10.45,6.39,0,9.44-2.32,9.44-5.81,0-2.76-1.31-4.79-4.94-6.68-4.65-2.32-11.18-4.5-16.7-7.26-10.45-5.23-13.79-11.76-13.79-21.2,0-11.76,9.73-20.76,25.12-20.76,9.87,0,17.86,1.89,24.68,5.52l-4.07,17.71c-5.08-4.94-13.79-8.28-19.75-8.28-5.52,0-7.84,2.18-7.84,5.23s1.31,4.94,4.79,6.53c4.06,1.89,11.32,4.65,16,6.82,11,5.23,14.66,12.2,14.66,21.49,0,12.92-10,21.63-27.29,21.63-11.18,0-19.75-2.9-25.7-7Z" style="fill:#2f4858"/><path d="M297.5,40.36v-20l19.75-3.77V40.36h19.31V56.77H317.24V88c0,13.5,2.61,17.71,11.32,22.5v1.31l-21.34,2.32c-6.39-3-9.73-8.86-9.73-23.23V56.77H284.28V40.36Z" style="fill:#2f4858"/><path d="M344.1,75.5c0-23.52,16.55-37.75,38.18-37.75S420.62,51.4,420.62,75.5c0,26.28-18,39.06-38.33,39.06C360.22,114.55,344.1,99.89,344.1,75.5Zm55.9,0c0-12.92-6.82-21.78-17.71-21.78S364.57,62,364.57,75.5s6.24,22.94,17.71,22.94C393.18,98.44,400,90.6,400,75.5Z" style="fill:#2f4858"/></g></g></svg>